HIERARCHY
ROOT Hips
{
	OFFSET 0.000000 0.000000 0.000000
	CHANNELS 6 Xposition Yposition Zposition Xrotation Yrotation Zrotation
	JOINT LeftUpLeg_virtual
	{
		OFFSET 0.000000 0.000000 0.000000
		CHANNELS 3 Xrotation Yrotation Zrotation
		JOINT LeftUpLeg
		{
			OFFSET 10.205400 -3.823500 0.155100
			CHANNELS 3 Xrotation Yrotation Zrotation
			JOINT LeftLeg
			{
				OFFSET 0.708757 -12.982077 0.567790
				CHANNELS 3 Xrotation Yrotation Zrotation
				JOINT LeftFoot
				{
					OFFSET -0.708756 -10.717838 -2.184338
					CHANNELS 3 Xrotation Yrotation Zrotation
					JOINT LeftToeBase
					{
						OFFSET 0.108149 -7.191104 7.560241
						CHANNELS 3 Xrotation Yrotation Zrotation
						JOINT LeftToe_End
						{
							OFFSET 0.070230 0.081724 4.490308
							CHANNELS 3 Xrotation Yrotation Zrotation
							End Site
							{
								OFFSET 0 0 0
							}
						}
					}
				}
			}
		}
	}
	JOINT RightUpLeg_virtual
	{
		OFFSET 0.000000 0.000000 0.000000
		CHANNELS 3 Xrotation Yrotation Zrotation
		JOINT RightUpLeg
		{
			OFFSET -10.205400 -3.823500 0.005500
			CHANNELS 3 Xrotation Yrotation Zrotation
			JOINT RightLeg
			{
				OFFSET -0.708756 -12.982134 0.610632
				CHANNELS 3 Xrotation Yrotation Zrotation
				JOINT RightFoot
				{
					OFFSET 0.708754 -10.717769 -1.945823
					CHANNELS 3 Xrotation Yrotation Zrotation
					JOINT RightToeBase
					{
						OFFSET -0.108140 -7.191069 7.372968
						CHANNELS 3 Xrotation Yrotation Zrotation
						JOINT RightToe_End
						{
							OFFSET -0.070227 0.081735 4.479403
							CHANNELS 3 Xrotation Yrotation Zrotation
							End Site
							{
								OFFSET 0 0 0
							}
						}
					}
				}
			}
		}
	}
	JOINT Spine_virtual
	{
		OFFSET 0.000000 0.000000 0.000000
		CHANNELS 3 Xrotation Yrotation Zrotation
		JOINT Spine
		{
			OFFSET 0.000000 6.876099 0.125700
			CHANNELS 3 Xrotation Yrotation Zrotation
			JOINT Spine1
			{
				OFFSET 0.000000 5.730043 0.104720
				CHANNELS 3 Xrotation Yrotation Zrotation
				JOINT Spine1_split
				{
					OFFSET 0.000000 5.730043 0.104720
					CHANNELS 3 Xrotation Yrotation Zrotation
					JOINT Spine2
					{
						OFFSET 0.000000 5.730043 0.104720
						CHANNELS 3 Xrotation Yrotation Zrotation
						JOINT Neck_virtual
						{
							OFFSET 0.000000 0.000000 0.000000
							CHANNELS 3 Xrotation Yrotation Zrotation
							JOINT Neck
							{
								OFFSET 0.000000 10.314075 0.188496
								CHANNELS 3 Xrotation Yrotation Zrotation
								JOINT Head
								{
									OFFSET 0.000000 7.643700 -2.377400
									CHANNELS 3 Xrotation Yrotation Zrotation
									JOINT HeadTop_End
									{
										OFFSET 0.000000 43.788605 -13.619600
										CHANNELS 3 Xrotation Yrotation Zrotation
										End Site
										{
											OFFSET 0 0 0
										}
									}
								}
							}
						}
						JOINT LeftShoulder_virtual
						{
							OFFSET 0.000000 0.000000 0.000000
							CHANNELS 3 Xrotation Yrotation Zrotation
							JOINT LeftShoulder
							{
								OFFSET 2.196100 4.412489 0.087492
								CHANNELS 3 Xrotation Yrotation Zrotation
								JOINT LeftShoulder_split
								{
									OFFSET 2.196100 4.412489 0.087492
									CHANNELS 3 Xrotation Yrotation Zrotation
									JOINT LeftArm
									{
										OFFSET 8.771219 -2.981674 -0.026999
										CHANNELS 3 Xrotation Yrotation Zrotation
										JOINT LeftForeArm
										{
											OFFSET 8.512804 0.000000 -0.000000
											CHANNELS 3 Xrotation Yrotation Zrotation
											JOINT LeftHand
											{
												OFFSET 18.484802 0.000000 -0.000000
												CHANNELS 3 Xrotation Yrotation Zrotation
												End Site
												{
													OFFSET 0 0 0
												}
											}
										}
									}
								}
							}
						}
						JOINT RightShoulder_virtual
						{
							OFFSET 0.000000 0.000000 0.000000
							CHANNELS 3 Xrotation Yrotation Zrotation
							JOINT RightShoulder
							{
								OFFSET -2.196100 4.412496 0.070690
								CHANNELS 3 Xrotation Yrotation Zrotation
								JOINT RightShoulder_split
								{
									OFFSET -2.196100 4.412496 0.070690
									CHANNELS 3 Xrotation Yrotation Zrotation
									JOINT RightArm
									{
										OFFSET -8.771282 -2.981682 -0.094208
										CHANNELS 3 Xrotation Yrotation Zrotation
										JOINT RightForeArm
										{
											OFFSET -8.494598 0.000000 0.000000
											CHANNELS 3 Xrotation Yrotation Zrotation
											JOINT RightHand
											{
												OFFSET -18.483803 0.000000 0.000001
												CHANNELS 3 Xrotation Yrotation Zrotation
												End Site
												{
													OFFSET 0 0 0
												}
											}
										}
									}
								}
							}
						}
					}
				}
			}
		}
	}
}
MOTION
Frames: 7
Frame Time: 0.03333333
0.413988 27.929708 0.571833 0.000000 0.000000 0.000000 7.828933 -11.824777 2.190870 -54.401268 -1.422636 28.286079 49.308205 -0.375176 4.985817 2.263786 1.437337 -27.452030 -0.463684 0.656166 -0.183227 0.000000 0.000000 0.000000 7.282520 -11.357179 2.376086 -20.497563 -2.316110 -41.629532 38.054150 6.429637 1.474962 -19.804905 -13.106260 37.533361 0.030664 1.147461 -0.054132 0.000000 0.000000 0.000000 8.265842 -9.736395 1.759665 7.944970 2.373201 -2.428981 6.200586 1.629782 -1.206153 0.525006 1.924451 0.371234 0.000000 0.000000 0.000000 6.311692 1.230576 -0.510554 -1.990410 -0.043121 -3.173132 -10.481144 -3.923324 4.624990 0.000000 0.000000 0.000000 5.912828 1.690568 -1.005549 5.352376 -36.227730 3.962571 -2.125347 -3.391749 -1.357747 -77.770030 -33.612870 -28.335252 -0.132077 -23.586872 1.554911 0.000000 0.000000 0.000000 5.352138 1.437310 -0.706646 5.445049 28.623759 -19.511287 2.398817 -0.343942 1.545907 -38.000734 30.623341 12.314209 0.781942 39.878097 -0.454007 0.000000 0.000000 0.000000 
0.459261 27.861565 0.614712 0.000000 0.000000 0.000000 8.130110 -11.380879 2.018801 -55.522973 -1.623588 28.433996 50.068442 -0.646972 4.803673 1.854264 1.144732 -27.437920 -0.345129 0.648397 -0.251703 0.000000 0.000000 0.000000 7.507458 -10.960332 2.174500 -20.391248 -2.611280 -41.483499 38.035175 6.321660 1.322601 -20.030059 -13.462295 37.502544 0.072487 1.178794 -0.082379 0.000000 0.000000 0.000000 8.676936 -9.646903 1.615314 8.036988 2.148363 -2.509892 6.162222 1.367813 -1.235406 0.607538 2.159108 0.297100 0.000000 0.000000 0.000000 6.181252 0.992238 -0.558031 -2.710909 -0.311903 -2.480429 -10.765411 -4.110007 5.080888 0.000000 0.000000 0.000000 5.779159 1.512964 -1.103427 5.232620 -36.553492 4.169217 -0.690537 -3.687836 -0.807879 -77.065441 -33.703370 -27.060293 -0.212578 -23.226149 1.681165 0.000000 0.000000 0.000000 5.438415 1.337314 -0.789004 5.096384 28.985772 -19.361032 2.707608 -1.028656 1.511061 -40.449798 28.602327 13.651675 0.709380 41.364199 -0.269676 0.000000 0.000000 0.000000 
0.496039 27.777180 0.657667 0.000000 0.000000 0.000000 8.352232 -10.978225 1.810244 -56.528674 -1.756716 28.601641 50.763380 -0.842894 4.729336 1.410957 1.013206 -27.370644 -0.254747 0.644414 -0.352451 0.000000 0.000000 0.000000 7.702135 -10.463927 1.914561 -20.188767 -2.947511 -41.348657 37.913892 6.147530 1.178433 -20.360422 -13.840488 37.311356 0.221589 1.170835 -0.017755 0.000000 0.000000 0.000000 9.024094 -9.542765 1.452233 8.133112 1.945014 -2.464050 6.192384 1.190367 -1.223591 0.791152 2.060744 0.233106 0.000000 0.000000 0.000000 6.057803 0.829165 -0.602940 -3.659216 -0.681651 -1.612868 -11.002538 -4.160289 5.452108 0.000000 0.000000 0.000000 5.819131 1.336475 -1.181423 4.988336 -36.535823 4.025492 0.294645 -3.709480 -0.362055 -76.475552 -33.956436 -26.660841 -0.542737 -22.331355 1.506583 0.000000 0.000000 0.000000 5.632504 1.337409 -0.816925 4.564392 28.876640 -18.596305 2.700294 -1.252209 1.209029 -42.441518 27.520301 15.298041 0.681904 41.474698 -0.193469 0.000000 0.000000 0.000000 
0.527918 27.687727 0.693014 0.000000 0.000000 0.000000 8.447935 -10.735121 1.578927 -57.285411 -1.798521 28.804947 51.393745 -0.922427 4.753127 0.940289 1.054956 -27.263709 -0.297733 0.649264 -0.438924 0.000000 0.000000 0.000000 7.868015 -10.023154 1.644463 -20.058464 -3.258524 -41.279563 37.744329 5.961501 1.044577 -20.641175 -14.115750 37.077897 0.432748 1.129582 0.114431 0.000000 0.000000 0.000000 9.235764 -9.463384 1.299845 8.214640 1.811903 -2.321785 6.275581 1.145289 -1.183473 0.964695 1.972420 0.123331 0.000000 0.000000 0.000000 5.968926 0.787861 -0.646602 -4.731939 -1.103432 -0.863299 -11.135780 -4.097546 5.708274 0.000000 0.000000 0.000000 6.002205 1.210779 -1.223108 4.714388 -36.243525 3.821346 0.709684 -3.379535 -0.238673 -76.292803 -34.735774 -26.949398 -0.972470 -21.300461 1.139137 0.000000 0.000000 0.000000 5.906900 1.421064 -0.798699 4.034500 28.459243 -17.666218 2.372963 -1.110230 0.681907 -43.287055 27.804670 16.613843 0.802391 40.073007 -0.323907 0.000000 0.000000 0.000000 
0.565280 27.610516 0.719521 0.000000 0.000000 0.000000 8.447814 -10.681311 1.358608 -57.735241 -1.740704 29.038242 51.928535 -0.914283 4.835169 0.476340 1.178944 -27.179469 -0.452257 0.660928 -0.471316 0.000000 0.000000 0.000000 7.954086 -9.813133 1.406529 -20.042543 -3.491640 -41.304032 37.494897 5.819967 0.932805 -20.809814 -14.206239 36.949951 0.705840 1.074233 0.259307 0.000000 0.000000 0.000000 9.292761 -9.443128 1.190108 8.255998 1.766604 -2.139520 6.370678 1.239898 -1.151879 1.026904 1.960352 -0.108656 0.000000 0.000000 0.000000 5.924589 0.861263 -0.690663 -5.795849 -1.466620 -0.487332 -11.115621 -3.938798 5.815474 0.000000 0.000000 0.000000 6.239698 1.182646 -1.219131 4.467258 -35.839126 3.717328 0.928967 -2.947610 -0.421900 -76.215813 -35.801191 -27.483582 -1.369089 -20.956296 0.753711 0.000000 0.000000 0.000000 6.168896 1.541576 -0.781955 3.639664 27.855632 -16.928252 1.920466 -0.865190 0.163044 -42.910301 29.049150 17.473395 1.024953 38.123022 -0.619293 0.000000 0.000000 0.000000 
0.612459 27.568373 0.715271 0.000000 0.000000 0.000000 8.373983 -10.824048 1.183447 -57.900982 -1.629672 29.263201 52.293448 -0.868231 4.934265 0.083560 1.274598 -27.170687 -0.625460 0.675285 -0.425593 0.000000 0.000000 0.000000 7.988178 -9.843894 1.236838 -20.087240 -3.636772 -41.372747 37.137538 5.730950 0.836289 -20.842227 -14.120810 36.992199 0.957443 1.022051 0.363953 0.000000 0.000000 0.000000 9.250112 -9.473256 1.137505 8.226992 1.792130 -1.981341 6.430034 1.418686 -1.152148 0.736921 2.078521 -0.332205 0.000000 0.000000 0.000000 5.910101 1.025476 -0.749150 -6.686377 -1.667780 -0.576818 -10.869520 -3.737728 5.776496 0.000000 0.000000 0.000000 6.439643 1.249079 -1.198660 4.237170 -35.509259 3.671800 1.038066 -2.644380 -0.584246 -75.881762 -36.592062 -27.703724 -1.524956 -21.705253 0.520626 0.000000 0.000000 0.000000 6.363759 1.644303 -0.787933 3.413599 27.113819 -16.591602 1.244791 -0.807416 -0.336149 -41.514030 30.284854 17.803907 1.348788 36.788611 -1.044330 0.000000 0.000000 0.000000 
0.657686 27.575783 0.706570 0.000000 0.000000 0.000000 8.297778 -11.104980 1.071502 -57.825748 -1.489485 29.461939 52.467929 -0.834170 5.006620 -0.212129 1.276475 -27.216620 -0.687613 0.687860 -0.314937 0.000000 0.000000 0.000000 8.006412 -10.084321 1.143593 -20.073928 -3.704513 -41.388286 36.700727 5.665249 0.757458 -20.709408 -13.947375 37.189356 1.038176 0.982978 0.402384 0.000000 0.000000 0.000000 9.176827 -9.561544 1.119406 8.110469 1.867038 -1.894390 6.446510 1.616347 -1.196918 0.358819 2.209893 -0.509592 0.000000 0.000000 0.000000 5.896414 1.201082 -0.839029 -7.273454 -1.661049 -1.068169 -10.407981 -3.608609 5.642337 0.000000 0.000000 0.000000 6.558730 1.365805 -1.206529 4.078516 -35.495718 3.696498 1.260488 -2.392000 -0.478571 -75.485154 -37.054589 -27.654700 -1.392015 -22.998328 0.487059 0.000000 0.000000 0.000000 6.490796 1.707661 -0.827872 3.254387 26.303192 -16.628049 0.676409 -0.969401 -0.705868 -39.849284 30.868118 17.979433 1.667246 36.755881 -1.482361 0.000000 0.000000 0.000000 
